<?xml version="1.0" encoding="UTF-8"?><svg id="a" xmlns="http://www.w3.org/2000/svg" width="114.15" height="27.29" viewBox="0 0 114.15 27.29"><path d="m34.76,17.34c0-4.57-3.04-7.84-7.33-7.84s-7.3,3.3-7.3,7.88,3,7.84,7.3,7.84,7.33-3.27,7.33-7.88m2.18,0c0,5.74-4.04,9.95-9.52,9.95s-9.52-4.17-9.52-9.95,4.08-9.91,9.52-9.91,9.52,4.18,9.52,9.91"/><path d="m54.57,16.58v10.27h-2.22v-9.98c0-3.77-1.54-7.3-5.94-7.3-4.69,0-6.4,3.96-6.4,6.42v10.85h-2.25V7.94h2.22v3.96c.97-2.32,3.08-4.43,7.01-4.43,4.72,0,7.59,3.09,7.59,9.11"/><path d="m59.93,20.83c0,3.09.82,4.32,3.36,4.32.86,0,1.5-.15,2.07-.33v2.03c-.61.22-1.43.4-2.5.4-3.51,0-5.15-2.07-5.15-5.48v-11.94h-3.01v-1.96h1.83c.64,0,1.18-.54,1.18-1.2v-3.85h2.22v5.05h4.61v1.96h-4.61s0,11,0,11Z"/><path d="m100.68,16.58v10.27h-2.22v-9.98c0-3.77-1.54-7.3-5.94-7.3-4.69,0-6.4,3.96-6.4,6.42v10.85h-2.25V7.94h2.22v3.96c.97-2.32,3.08-4.43,7.01-4.43,4.72,0,7.59,3.09,7.59,9.11"/><path d="m106.13,20.83c0,3.09.82,4.32,3.36,4.32.86,0,1.5-.15,2.07-.33v2.03c-.61.22-1.43.4-2.5.4-3.51,0-5.15-2.07-5.15-5.48v-11.94h-3.01v-1.96h1.82c.64,0,1.18-.54,1.18-1.2v-3.85h2.22v5.05h4.61v1.96h-4.61v11h.01Z"/><path d="m9.51,25.18c-4.28,0-7.31-3.21-7.33-7.75.02-4.54,3.06-7.75,7.33-7.75,2.73,0,4.95,1.31,6.18,3.48l2.24-.41c-1.56-3.17-4.67-5.18-8.42-5.18C4.11,7.58.06,11.69,0,17.43c.06,5.74,4.11,9.86,9.51,9.86,3.75,0,6.87-2.01,8.42-5.18l-2.24-.41c-1.23,2.17-3.45,3.49-6.18,3.49"/><path d="m73.53,9.46c4.01.04,6.94,2.9,7.23,7.04h-14.45c.25-4.1,3.18-7.01,7.23-7.04m6.15,12.22c-1.25,2.11-3.46,3.46-6.15,3.46-3.94,0-6.87-2.8-7.23-6.82h16.71c.04-.29.04-.84.04-.94,0-5.77-4.08-10.02-9.52-10.02s-9.48,4.21-9.48,9.94,4.04,9.95,9.44,9.95c3.79,0,6.89-2.03,8.44-5.15l-2.25-.41h0Z"/><path d="m111.58,2.37c.39,0,.83.02.83-.51,0-.42-.34-.49-.65-.49h-.65v.99h.47Zm-.47,1.68h-.4V1.03h1.14c.67,0,.97.29.97.84s-.34.76-.69.84l.83,1.34h-.46l-.81-1.34h-.57v1.34h-.01Zm2.63-1.51c0-1.23-.9-2.2-2.1-2.2s-2.1.97-2.1,2.2.9,2.2,2.1,2.2,2.1-.97,2.1-2.2m.41,0c0,1.4-1.12,2.54-2.5,2.54s-2.5-1.14-2.5-2.54,1.12-2.54,2.5-2.54,2.5,1.14,2.5,2.54"/></svg>