<svg id="a" xmlns="http://www.w3.org/2000/svg" width="67.87mm" height="12.47mm" viewBox="0 0 192.39 35.33">
  <g>
    <path class="a1" d="M68.1,12c3.08,0,4.69,2.25,4.69,5.7s-1.61,5.66-4.69,5.66-4.69-2.21-4.69-5.66,1.61-5.7,4.69-5.7m-4.36,23.33v-9.83c1.29,1.31,2.75,2.11,5.04,2.11,5.19,0,8.66-4.17,8.66-9.95s-3.43-9.95-8.69-9.95c-2.18,0-3.68,.73-5.01,2.03v-1.52h-4.62v27.1h4.62Z" fill="#1d1d1b" />
    <path class="a2" d="M113.02,17.59c0-4.57-3.04-7.84-7.33-7.84s-7.3,3.3-7.3,7.88,3,7.84,7.3,7.84,7.33-3.27,7.33-7.88m2.18,0c0,5.74-4.04,9.95-9.52,9.95s-9.52-4.17-9.52-9.95,4.08-9.91,9.52-9.91,9.52,4.18,9.52,9.91" fill="#1d1d1b" />
    <path class="a3" d="M132.82,16.83v10.27h-2.22v-9.98c0-3.77-1.54-7.3-5.94-7.3-4.69,0-6.4,3.96-6.4,6.42v10.85h-2.25V8.19h2.22v3.96c.97-2.32,3.08-4.43,7.01-4.43,4.72,0,7.59,3.09,7.59,9.11" fill="#1d1d1b" />
    <path class="a4" d="M138.17,21.08c0,3.09,.82,4.32,3.36,4.32,.86,0,1.5-.15,2.07-.33v2.03c-.61,.22-1.43,.4-2.5,.4-3.51,0-5.15-2.07-5.15-5.48V10.08h-3.01v-1.96h1.83c.64,0,1.18-.54,1.18-1.2V3.08h2.22v5.05h4.61v1.96h-4.61v11Z" fill="#1d1d1b" />
    <path class="a5" d="M178.93,16.83v10.27h-2.22v-9.98c0-3.77-1.54-7.3-5.94-7.3-4.69,0-6.4,3.96-6.4,6.42v10.85h-2.25V8.19h2.22v3.96c.97-2.32,3.08-4.43,7.01-4.43,4.72,0,7.59,3.09,7.59,9.11" fill="#1d1d1b" />
    <path class="a6" d="M184.38,21.08c0,3.09,.82,4.32,3.36,4.32,.86,0,1.5-.15,2.07-.33v2.03c-.61,.22-1.43,.4-2.5,.4-3.51,0-5.15-2.07-5.15-5.48V10.08h-3.01v-1.96h1.82c.64,0,1.18-.54,1.18-1.2V3.08h2.22v5.05h4.61v1.96h-4.61v11Z" fill="#1d1d1b" />
    <path class="a7" d="M23.86,15.96c.5-2.5,2.22-4.06,4.76-4.06s4.29,1.56,4.79,4.06h-9.55Zm4.76-8.31c-5.4,0-9.48,4.17-9.48,9.91s4.08,9.98,9.48,9.98c3.77,0,6.85-2,8.43-5.14l-4.67-.85c-.86,1.08-2.13,1.74-3.76,1.74-2.43,0-4.11-1.45-4.72-3.81h14.24c.07-.76,.07-1.45,.07-1.78,0-5.7-4.11-10.06-9.59-10.06" fill="#1d1d1b" />
    <path class="a8" d="M43.95,15.96c.5-2.5,2.22-4.06,4.76-4.06s4.29,1.56,4.79,4.06h-9.55Zm4.76-8.31c-5.4,0-9.48,4.17-9.48,9.91s4.08,9.98,9.48,9.98c3.77,0,6.85-2,8.43-5.14l-4.67-.85c-.86,1.08-2.13,1.74-3.76,1.74-2.43,0-4.12-1.45-4.72-3.81h14.24c.07-.76,.07-1.45,.07-1.78,0-5.7-4.11-10.06-9.59-10.06" fill="#1d1d1b" />
    <path class="a9" d="M87.77,25.44c-4.28,0-7.31-3.21-7.33-7.75,.02-4.54,3.06-7.75,7.33-7.75,2.73,0,4.95,1.31,6.18,3.48l2.24-.41c-1.56-3.17-4.67-5.18-8.42-5.18-5.4,0-9.45,4.11-9.51,9.85,.06,5.74,4.11,9.86,9.51,9.86,3.75,0,6.87-2.01,8.42-5.18l-2.24-.41c-1.23,2.17-3.45,3.49-6.18,3.49" fill="#1d1d1b" />
    <path class="a10" d="M151.77,9.72c4.01,.04,6.94,2.9,7.23,7.04h-14.45c.25-4.1,3.18-7.01,7.23-7.04m6.15,12.22c-1.25,2.11-3.46,3.46-6.15,3.46-3.94,0-6.87-2.8-7.23-6.82h16.71c.04-.29,.04-.84,.04-.94,0-5.77-4.08-10.02-9.52-10.02s-9.48,4.21-9.48,9.94,4.04,9.95,9.44,9.95c3.79,0,6.89-2.03,8.44-5.15l-2.25-.41Z" fill="#1d1d1b" />
    <path class="a11" d="M9.34,23.33c-3.08,0-4.69-2.25-4.69-5.7s1.61-5.66,4.69-5.66,4.69,2.22,4.69,5.66-1.61,5.7-4.69,5.7M13.7,0V9.83c-1.29-1.31-2.76-2.11-5.05-2.11C3.47,7.72,0,11.9,0,17.67s3.44,9.95,8.69,9.95c2.18,0,3.68-.73,5.01-2.03v1.52h4.61V0h-4.61Z" fill="#1d1d1b" />
  </g>
  <path class="a12" d="M189.83,2.62c.39,0,.83,.02,.83-.51,0-.42-.34-.49-.65-.49h-.65v.99h.47Zm-.47,1.68h-.4V1.29h1.14c.67,0,.97,.29,.97,.84s-.34,.76-.69,.84l.83,1.34h-.46l-.81-1.34h-.57v1.34Zm2.63-1.51c0-1.23-.9-2.2-2.1-2.2s-2.1,.97-2.1,2.2,.9,2.2,2.1,2.2,2.1-.97,2.1-2.2m.41,0c0,1.4-1.12,2.54-2.5,2.54s-2.5-1.14-2.5-2.54,1.12-2.54,2.5-2.54,2.5,1.14,2.5,2.54" fill="#1d1d1b" />
</svg>