<svg width="10" height="10" xmlns="http://www.w3.org/2000/svg">

 <g>
  <title>Layer 1</title>
  <path id="svg_1" fill="#1d1d1b" d="m4.93,4.83c0.39,0 0.83,0.02 0.83,-0.51c0,-0.42 -0.34,-0.49 -0.65,-0.49l-0.65,0l0,0.99l0.47,0l0,0.01zm-0.47,1.68l-0.4,0l0,-3.01l1.14,0c0.67,0 0.97,0.29 0.97,0.84s-0.34,0.76 -0.69,0.84l0.83,1.34l-0.46,0l-0.81,-1.34l-0.57,0l0,1.34l-0.01,-0.01zm2.63,-1.51c0,-1.23 -0.9,-2.2 -2.1,-2.2s-2.1,0.97 -2.1,2.2s0.9,2.2 2.1,2.2s2.1,-0.97 2.1,-2.2m0.41,0c0,1.4 -1.12,2.54 -2.5,2.54s-2.5,-1.14 -2.5,-2.54s1.12,-2.54 2.5,-2.54s2.5,1.14 2.5,2.54" class="a12 litera"/>
 </g>
</svg>